<?xml version="1.0" encoding="UTF-8" standalone="no"?>
<svg
   xmlns:dc="http://purl.org/dc/elements/1.1/"
   xmlns:cc="http://creativecommons.org/ns#"
   xmlns:rdf="http://www.w3.org/1999/02/22-rdf-syntax-ns#"
   xmlns:svg="http://www.w3.org/2000/svg"
   xmlns="http://www.w3.org/2000/svg"
   xmlns:sodipodi="http://sodipodi.sourceforge.net/DTD/sodipodi-0.dtd"
   xmlns:inkscape="http://www.inkscape.org/namespaces/inkscape"
   width="200mm"
   height="200mm"
   viewBox="0 0 200 200"
   version="1.1"
   id="svg1018"
   inkscape:version="1.0.2 (e86c870879, 2021-01-15)"
   sodipodi:docname="Hessen.svg">
  <defs
     id="defs1012" />
  <sodipodi:namedview
     id="base"
     pagecolor="#ffffff"
     bordercolor="#666666"
     borderopacity="1.0"
     inkscape:pageopacity="0.0"
     inkscape:pageshadow="2"
     inkscape:zoom="0.35"
     inkscape:cx="400"
     inkscape:cy="560"
     inkscape:document-units="mm"
     inkscape:current-layer="layer1"
     inkscape:document-rotation="0"
     showgrid="false"
     inkscape:window-width="1600"
     inkscape:window-height="836"
     inkscape:window-x="0"
     inkscape:window-y="0"
     inkscape:window-maximized="1" />
  <metadata
     id="metadata1015">
    <rdf:RDF>
      <cc:Work
         rdf:about="">
        <dc:format>image/svg+xml</dc:format>
        <dc:type
           rdf:resource="http://purl.org/dc/dcmitype/StillImage" />
        <dc:title></dc:title>
      </cc:Work>
    </rdf:RDF>
  </metadata>
  <g
     inkscape:label="Ebene 1"
     inkscape:groupmode="layer"
     id="layer1">
    <path
       inkscape:connector-curvature="0"
       style="color:#000000;display:block;visibility:visible;fill:#80b3ff;fill-opacity:1;fill-rule:nonzero;stroke:#000000;stroke-width:1.75665;stroke-linecap:butt;stroke-linejoin:miter;stroke-miterlimit:0;stroke-dasharray:none;stroke-dashoffset:0;stroke-opacity:1;marker:none"
       d="m 68.126757,155.32571 v 0.21942 l 1.097875,6.58742 c 0.335284,-0.6705 -1.159554,-5.33925 -0.878313,-7.02657 0.129465,-0.7766 0.524836,-2.41229 0.439156,-2.63498 -0.425314,-1.10586 -0.424948,-1.79709 -1.097908,-2.85456 -0.459373,-0.72186 -1.014286,-1.45696 -1.537065,-2.41538 -0.462095,-0.8472 -0.744929,-1.49935 -1.31747,-2.41541 -0.35487,-0.5678 -0.951345,-1.35359 -1.097908,-1.75662 -0.219097,-0.60302 -0.264576,-1.62644 -0.878312,-2.41542 -0.760864,-0.97822 0.0332,-1.06026 -1.537099,-1.97622 -0.551261,-0.32167 -2.060705,-1.49607 -2.634972,-1.53706 -1.213731,-0.0866 -2.249096,-0.6696 -3.074129,-0.21977 -0.857466,0.46774 -1.447369,0.51084 -2.415378,1.31751 -0.707052,0.58921 -1.73455,1.74557 -2.634973,2.19581 -1.079483,0.53971 -1.078122,1.42869 -2.634972,1.31748 -1.112482,-0.0793 -2.236516,0.12947 -3.074129,-0.21976 -0.679234,-0.28317 -2.047461,-0.29014 -2.634973,-1.09788 -0.556573,-0.76532 -1.543804,-1.13818 -1.75666,-2.41541 -0.111872,-0.6713 -1.124531,-1.72113 -0.439156,-2.63498 0.544157,-0.72553 0.304743,-1.11214 1.317469,-1.75666 0.599529,-0.38149 0.876057,-1.93933 1.40667,-2.54577 0.485631,-0.55497 1.399564,-1.92045 1.873312,-2.59722 0.533566,-0.76226 1.365273,-1.03126 2.377666,-1.85957 0.720065,-0.58918 1.503537,0.20614 2.24727,-0.46317 0.432816,-0.38952 2.263505,-1.41848 2.195817,-1.97624 -0.426045,-3.5104 -0.278519,-4.91153 2.634972,-3.2937 0.09827,0.0548 2.657414,-1.23527 2.634972,-1.3175 -0.214781,-0.78792 0.457482,-1.60359 -0.658751,-2.41538 -0.884653,-0.64342 -1.577995,-0.81461 -2.415377,-1.75666 -0.544756,-0.61284 -1.071252,-1.09502 -1.756659,-1.97622 -0.4126,-0.53048 -1.190063,-1.14342 -1.537065,-1.97623 -0.551527,-1.32366 -0.979397,-1.09451 -1.097909,-2.63496 -0.05743,-0.74596 -0.357659,-2.3022 -0.219429,-2.85456 0.05245,-0.21012 0.281507,-1.8804 0.658752,-2.63494 0.01991,-0.0391 0.93415,-3.305802 1.31747,-2.63497 0.292793,0.51236 0.341127,1.29286 0.878313,1.53706 0.814045,0.37001 0.903842,1.9224 2.415411,1.09791 0.459306,-0.25064 2.241495,-0.90012 2.415377,-1.3175 0.277855,-0.66682 1.097909,-1.43757 1.097909,-2.63496 0,-1.40683 -0.191544,-1.996752 0,-2.634957 0.31769,-1.058606 -0.02656,-1.117888 0.65875,-2.195772 0.378972,-0.595538 1.366967,-1.564877 1.537066,-2.415394 0.146396,-0.731921 0.501167,-1.45194 0.439157,-2.19581 -0.02987,-0.376345 0.474709,-1.643121 -0.219429,-2.634954 -0.229388,-0.327649 -1.994713,-1.280508 -1.537098,-2.195776 0.429629,-0.859247 0.828718,-1.657386 1.317502,-2.634953 0.385645,-0.771277 0.778491,-1.865001 1.31747,-2.634958 0.580208,-0.82888 0.827157,-1.397127 1.537098,-2.19581 0.631364,-0.710289 0.971496,-1.348124 1.756625,-1.976232 0.770958,-0.616761 1.370585,-1.081442 2.195818,-1.756614 1.06262,-0.869451 1.170575,-1.457555 2.415377,-1.976212 0.148388,-0.06206 2.536943,-0.91815 2.634973,-1.097903 0.442576,-0.81135 0.849565,-1.401516 1.317503,-2.415398 0.264576,-0.573237 0.705026,-2.548288 1.317469,-2.854517 0.646602,-0.323338 2.099547,-0.942682 2.634973,-1.317502 0.378308,-0.264901 1.946112,-0.97524 2.195817,-1.53705 0.252625,-0.568618 1.705536,-0.597541 0.878345,-1.976212 -0.391055,-0.65174 -1.044229,-1.307637 -1.317503,-2.195807 -0.193535,-0.629463 -1.854157,-2.233545 -0.878313,-2.854556 1.102888,-0.701828 0.908125,-1.644707 2.415379,-1.53705 1.107468,0.07897 2.179881,0.294114 3.074141,0.219757 0.593023,-0.04944 2.206439,0.637475 2.634973,-0.219757 0.314704,-0.629104 0.951014,-1.167548 1.097908,-2.195799 0.210798,-1.476043 0.244658,-2.441526 0.439157,-3.074115 0.277855,-0.903269 0.571578,-1.704198 0.878346,-2.854518 0.216109,-0.810319 0.984476,-2.232124 0.878314,-3.293715 -0.07635,-0.76332 0.714222,-2.195816 -0.21943,-2.195816 -0.166646,0 -2.949741,0.124486 -3.074161,0 -0.440718,-0.440717 -2.764387,0.568556 -1.09791,-1.097908 0.352913,-0.352879 1.701621,-1.317137 1.976255,-1.976221 0.341559,-0.819754 0.528189,-1.938675 1.097908,-2.634973 0.662669,-0.809962 0.44241,-2.108609 1.976222,-2.415377 1.140432,-0.22806 2.224597,-0.730025 3.293724,-0.658751 1.079613,0.07203 2.228014,-0.02656 3.293694,0.21976 0.50511,0.116519 2.48227,0.977869 2.85456,0.658751 0.721229,-0.618186 1.134459,-0.01 1.537069,-1.317502 0.24531,-0.797314 0.87831,-1.537663 0.87831,-2.854535 0,-0.859324 -0.18358,-1.97247 0,-3.074129 0.0939,-0.564241 -0.38491,-2.185492 0.43919,-2.634972 1.15242,-0.628609 1.11666,-1.057741 2.41538,-1.317503 0.35268,-0.07071 2.86118,-1.338418 3.29372,-0.658719 0.0266,0.03951 1.33746,2.382115 1.53707,2.415378 0.80113,0.13345 1.58623,1.225715 2.63496,0.439156 0.64957,-0.487159 1.77058,-1.269002 2.63499,-1.976221 0.93835,-0.767769 1.41021,-1.336591 2.41537,-1.976221 0.62373,-0.39693 1.84006,-0.745992 2.41541,-1.537064 0.30176,-0.415023 1.41603,-1.461742 1.75663,-2.415411 0.30374,-0.850196 0.40457,-2.317747 1.0979,-3.07413 0.64655,-0.705326 0.35544,-3.7187716 1.40668,-3.6436814 -0.22574,1.8277664 2.24743,1.3403754 2.76536,2.1820724 0.59197,0.961936 1.2626,0.733245 3.07414,0.813116 1.04007,0.0458 1.83201,0.541634 3.07415,0.4529 1.18034,-0.08432 2.22995,0.875956 3.07414,0.634751 1.58005,-0.45144 1.5122,0.687366 2.41537,1.097907 0.80929,0.36785 1.10664,2.766531 1.31751,3.293724 0.41667,1.041739 0.61383,2.250756 0.65871,2.415377 0.12947,0.47501 -2.658,-0.569584 -3.07413,-0.658751 -1.90676,-0.408583 -1.00605,0.503027 -2.19581,1.097909 -0.39049,0.195195 0.20282,2.840691 0.21942,3.074161 0.0777,1.087054 0.64033,2.241129 0.87832,3.07413 0.29479,1.031449 -0.92243,2.152362 -1.31747,3.07413 -0.24034,0.56039 -2.19575,1.35123 -2.85457,1.756626 -0.87386,0.537783 -1.45882,1.167089 -2.19582,1.756626 -1.07092,0.856769 -0.95523,1.313452 -1.75662,2.415411 -0.3788,0.52082 1.52479,1.90601 1.75662,2.195816 0.70537,0.881665 1.98008,1.320026 2.63497,1.756626 1.10054,0.733676 2.0716,1.434188 2.85457,1.976222 1.03206,0.714487 2.2106,0.340097 2.85457,0.439188 1.24186,0.191213 1.40787,-0.703965 2.19579,-1.097908 1.20948,-0.60474 0.95711,-1.914243 1.09791,-2.195815 0.42887,-0.857699 -0.67423,-2.191234 -0.87832,-2.854568 -0.33455,-1.087317 0.8647,-1.152914 1.3175,-1.756626 0.34236,-0.456518 2.91748,0.194532 3.29369,0.21943 1.56734,0.104565 1.60499,1.604983 2.19582,2.195815 0.0823,0.08232 0.4368,3.494231 0.43916,3.513287 0.16432,1.31405 1.42599,0.998184 2.19581,1.537063 0.85335,0.597372 2.2897,0.305409 3.29373,0.43919 1.67987,0.224076 1.48093,0.863873 2.63497,1.537065 0.58927,0.34375 0.55913,2.609272 0.65875,3.074112 0.21843,1.019231 0.5908,2.067798 0.87831,3.074115 0.38741,1.355966 0.1308,1.570748 0.21943,2.634958 0.0876,1.049296 -0.47345,2.209284 -0.65875,3.074115 -0.16299,0.760463 0.24366,1.218702 0.43916,2.195796 0.25927,1.295989 0.79267,1.585359 1.31747,2.634957 0.44742,0.894808 0.84365,1.68727 1.3175,2.634969 0.40642,0.812875 -1.02368,1.876718 -1.3175,2.415359 -0.50881,0.932817 -1.93034,1.4849 -2.85454,2.195807 -0.82612,0.635472 -1.23434,1.097197 -1.97621,1.756648 -0.77173,0.685932 -1.25423,1.532909 -1.97626,2.415359 -0.8425,1.029721 -0.92821,1.59123 -1.53707,2.634957 -0.62668,1.074307 0.15902,1.908027 0.21944,2.634969 0.0167,0.196523 0.34676,2.080578 0.43916,2.634946 0.0544,0.32599 -1.2822,2.381214 -1.53707,2.854552 -0.35185,0.653442 0,2.52847 0,3.293714 0,1.061778 -1.61179,1.772916 -2.19583,2.415359 -0.85779,0.943573 -1.03642,1.628671 -1.53706,2.415394 -0.62011,0.974441 0.14706,2.203147 0.21944,3.293675 0.11652,1.745927 1.48973,1.489721 2.19577,2.195811 1.04612,1.046101 1.88576,-1.697173 2.19583,-1.976212 0.81012,-0.729097 0.87619,-2.044398 1.31749,-3.074116 0.46432,-1.08343 2.11512,-1.410084 2.63499,-1.756649 1.17023,-0.78018 0.21078,2.319165 0.21942,2.415359 0.0863,0.948958 -0.63931,1.917984 -0.87831,2.634958 -0.49464,1.48387 -0.13114,1.834803 -0.21944,3.07415 -0.0816,1.143349 -0.15602,2.497725 -0.21942,3.513267 -0.0793,1.26978 -0.51889,1.68636 -0.87831,2.85455 -0.40812,1.32629 -1.40624,1.71867 -1.97626,2.41536 -0.95715,1.16987 -1.51303,1.51303 -2.41537,2.41537 -0.79453,0.79456 -1.42503,1.13999 -2.19583,1.75665 -1.10816,0.88655 -0.87712,1.9004 -1.31747,2.85457 -0.89866,1.94705 -0.62456,-0.1786 -1.5371,-0.43919 -0.0734,-0.0199 -0.57831,-2.50607 -0.65871,-2.85453 -0.31803,-1.37865 -2.23005,1.115 -2.63497,1.31746 -0.46011,0.23006 -0.77438,2.71027 -0.87835,3.07417 -0.24134,0.84445 -0.78141,1.8754 -1.09791,2.63497 -0.45058,1.08141 2.03717,1.40528 2.13411,3.24223 0.10953,2.07346 -0.66612,3.94205 -2.27473,5.2185 -0.95187,0.75532 -2.35154,2.27492 -3.52703,3.05012 -1.87231,-0.48788 -3.69998,-0.0866 -5.33515,-1.19056 -1.53845,-1.22123 -3.52283,-1.40945 -4.22734,-0.86871 -0.81493,0.62548 1.29958,1.16147 1.37278,2.18618 0.0843,1.17805 -0.14805,2.22251 -0.21942,3.29372 -0.0763,1.14801 -0.28716,2.15433 -0.43916,3.29373 -0.17263,1.29344 -1.0666,1.8285 -1.53706,2.63498 -0.58615,1.00483 -1.7322,1.01047 -2.63499,1.53706 -0.79979,0.46654 -1.78061,-0.27554 -2.04556,-0.60669 -0.6441,-0.80513 -0.62359,-3.26209 -1.02856,-4.00451 -0.71317,-1.30747 -1.48435,-0.2473 -2.63497,-0.43915 -0.91453,-0.15237 -2.605,0.18591 -3.07413,0.21943 -1.2132,0.0866 -1.43403,0.91257 -2.41541,1.53706 -1.13857,0.72456 -1.39558,0.13943 -2.19579,0.21943 -0.26358,0.0265 -1.25821,-2.09703 -1.31749,-2.19582 -0.64479,-1.07463 -1.57445,1.39951 -1.97623,1.75667 -0.78364,0.69656 -1.31349,1.45941 -1.97622,2.19581 -0.60055,0.66725 -1.23272,1.38679 -1.75666,1.97623 -0.740669,0.83326 -1.234379,1.69727 -1.756659,2.41537 -0.70278,0.96635 -0.16101,2.25318 -0.21942,3.07413 -0.0714,1.00085 0.63766,1.75367 0.8783,2.41541 0.32832,0.90272 0.15702,2.04281 0.21944,2.85453 0.0979,1.27243 -0.59684,1.79052 -0.87835,2.63498 -0.28583,0.8575 0.13245,1.59064 0.21976,2.63498 0.0491,0.58813 1.111479,1.90544 1.537059,2.63496 0.58791,1.00785 0.53208,1.72927 0.87831,2.85457 0.45397,1.47541 0.25694,2.05628 0.43916,3.51328 0.17395,1.39108 0.29944,2.24571 0.43919,3.29373 0.13047,0.97807 -0.29976,1.9489 -0.43919,2.85457 -0.15901,1.03281 -0.28748,1.86816 -0.43916,2.85454 -0.20714,1.34614 -0.95091,1.7433 -1.31746,2.4154 -0.515209,0.94454 -1.358209,1.96182 -1.976259,2.85454 -0.5406,0.78088 -0.38458,1.53839 -0.65871,2.63497 -0.29712,1.18866 -0.25695,1.79899 -0.43916,3.07413 -0.16466,1.15339 0.14739,2.06438 0.21942,3.07416 0.0717,1.0025 -0.55796,1.1159 -0.87831,1.75663 -0.19885,0.3978 -1.466953,0.97797 -1.976223,1.3175 -0.716376,0.47757 -2.762741,-0.34534 -3.513314,-0.43916 -1.140732,-0.14274 -2.501623,-0.33355 -3.293725,-0.43919 -1.21041,-0.16133 -2.618906,-0.21213 -2.259387,-1.90687 0.166647,-0.78523 2.017385,-2.13897 2.259387,-2.48472 0.571245,-0.81604 1.330749,-1.1829 1.976254,-1.75666 0.962932,-0.85594 -0.998881,-1.83126 -1.317502,-2.41538 -0.673391,-1.23458 -2.623121,0.74944 -3.074129,0.87831 -1.027432,0.29346 -2.068189,0 -2.854581,0 -1.042536,0 -1.911322,-1.73757 -2.415378,-2.19581 -0.523873,-0.47624 -0.868719,-2.25873 -1.097908,-2.85454 -0.322338,-0.83804 -0.517135,-2.41339 -0.658752,-3.07416 -0.316693,-1.47877 -1.00977,0.37867 -1.756625,0.65876 -0.30076,0.11289 -1.17519,2.1545 -1.317503,2.4154 -0.669773,1.22794 -1.228404,1.50138 -1.976222,2.41538 -0.695766,0.85039 -1.809939,0.60331 -1.976221,0.65876 -1.871652,0.62386 -0.923261,-0.80788 -1.756659,-1.53708 -0.779222,-0.68182 -0.957852,-2.07534 -1.317469,-2.85457 -0.495293,-1.07307 -0.789248,-1.57848 -1.317503,-2.63497 -0.491242,-0.98248 -0.596908,-1.93986 -0.878314,-2.85455 -0.315035,-1.02425 0.155692,-2.025 0.219429,-2.85455 0.07071,-0.92037 1.630181,-1.44905 1.976255,-1.75666 0.711301,-0.63226 1.171205,-1.02484 1.756626,-1.53706 0.947959,-0.82945 -0.443273,-1.47758 -0.658752,-2.19581"
       id="path4571"
       sodipodi:nodetypes="cccsssssssssssssssssssssssssssssssssssssssssssssssssssssssssssssssssssssssssssssssssssssscssssssssssssssssssssssssssssssssssssssssssssssssssssssssssssssssssssssssssssssssssssssssssssssssssssssssssssssssssssssssssssssss" />
    <text
       xml:space="preserve"
       style="font-style:normal;font-variant:normal;font-weight:bold;font-stretch:normal;font-size:10.5399px;line-height:0%;font-family:Arial;text-align:start;writing-mode:lr-tb;text-anchor:start;display:inline;fill:#000000;fill-opacity:1;stroke:none;stroke-width:0.87832"
       x="78.307777"
       y="103.62823"
       id="text9110"><tspan
         sodipodi:role="line"
         id="tspan18309"
         x="78.307777"
         y="103.62823"
         style="font-size:10.5399px;line-height:1;stroke-width:0.87832">HESSEN</tspan></text>
  </g>
</svg>
